<?xml version="1.0" encoding="UTF-8"?>
<svg xmlns="http://www.w3.org/2000/svg" xmlns:xlink="http://www.w3.org/1999/xlink" width="4876" height="4876" viewBox="0 0 4876 4876">
<path fill-rule="nonzero" fill="rgb(0%, 0%, 0%)" fill-opacity="1" d="M 3176.5 0.5 C 2240.308594 0.5 1477.5 763.308594 1477.5 1699.5 C 1477.5 2102.558594 1618.988281 2473.398438 1854.738281 2765.148438 L 53.546875 4566.347656 C 19.582031 4600.308594 0.5 4646.375 0.5 4694.40625 C 0.5 4742.4375 19.582031 4788.5 53.546875 4822.464844 C 124.269531 4893.183594 238.929688 4893.183594 309.648438 4822.464844 L 2110.851562 3021.269531 C 2402.589844 3257.019531 2773.441406 3398.511719 3176.5 3398.511719 C 4112.691406 3398.511719 4875.5 2635.679688 4875.5 1699.5 C 4875.5 763.308594 4112.691406 0.5 3176.5 0.5 Z M 3176.5 362.691406 C 3916.941406 362.691406 4513.308594 959.050781 4513.308594 1699.5 C 4513.308594 2439.941406 3916.941406 3036.308594 3176.5 3036.308594 C 2812.558594 3036.308594 2483.488281 2892.160156 2242.871094 2657.71875 C 2239.199219 2653.21875 2235.320312 2648.898438 2231.230469 2644.78125 C 2228.390625 2642.230469 2225.460938 2639.78125 2222.460938 2637.410156 C 1985.539062 2396.429688 1839.679688 2065.601562 1839.679688 1699.5 C 1839.679688 959.050781 2436.058594 362.691406 3176.5 362.691406 Z M 3176.5 362.691406 "/>
</svg>
