<?xml version="1.0" encoding="UTF-8"?>
<svg xmlns="http://www.w3.org/2000/svg" xmlns:xlink="http://www.w3.org/1999/xlink" width="2000.16" height="2000.16" viewBox="0 0 2000.16 2000.16">
<defs>
<clipPath id="clip-0">
<path clip-rule="nonzero" d="M 0 0.03125 L 2000 0.03125 L 2000 2000.03125 L 0 2000.03125 Z M 0 0.03125 "/>
</clipPath>
</defs>
<g clip-path="url(#clip-0)">
<path fill-rule="evenodd" fill="rgb(100%, 100%, 100%)" fill-opacity="1" d="M 2000 0.03125 L 0 0.03125 L 0 2000.03125 L 2000 2000.03125 L 2000 0.03125 "/>
</g>
<path fill-rule="evenodd" fill="rgb(96.484375%, 99.609375%, 100%)" fill-opacity="1" d="M 1586.238281 413.789062 C 1728.261719 555.820312 1728.261719 786.441406 1586.238281 928.460938 C 1444.210938 1070.492188 1213.589844 1070.492188 1071.570312 928.460938 C 929.539062 786.441406 929.539062 555.820312 1071.570312 413.789062 C 1213.589844 271.769531 1444.210938 271.769531 1586.238281 413.789062 "/>
<path fill-rule="evenodd" fill="rgb(35.496521%, 35.496521%, 35.496521%)" fill-opacity="1" d="M 721.351562 1184.339844 L 1000.449219 905.238281 C 887.976562 747.761719 902.402344 527.28125 1043.730469 385.960938 C 1201.121094 228.570312 1456.679688 228.570312 1614.078125 385.960938 C 1771.46875 543.351562 1771.46875 798.910156 1614.078125 956.300781 C 1472.75 1097.628906 1252.269531 1112.054688 1094.789062 999.578125 L 815.691406 1278.679688 C 818.25 1308.15625 808.25 1338.519531 785.691406 1361.078125 L 445.011719 1701.757812 C 404.488281 1742.28125 338.792969 1742.28125 298.273438 1701.757812 C 257.75 1661.238281 257.75 1595.542969 298.273438 1555.019531 L 638.953125 1214.339844 C 661.511719 1191.78125 691.875 1181.78125 721.351562 1184.339844 Z M 1558.398438 441.628906 C 1431.730469 314.96875 1226.070312 314.96875 1099.410156 441.628906 C 972.742188 568.300781 972.742188 773.960938 1099.410156 900.621094 C 1226.070312 1027.285156 1431.730469 1027.285156 1558.398438 900.621094 C 1685.058594 773.960938 1685.058594 568.300781 1558.398438 441.628906 "/>
<path fill-rule="evenodd" fill="rgb(86.131287%, 89.256287%, 89.646912%)" fill-opacity="1" d="M 1157.789062 664.710938 C 1136.800781 670.328125 1115.199219 657.859375 1109.570312 636.871094 C 1103.949219 615.878906 1116.429688 594.269531 1137.410156 588.648438 L 1353.269531 530.808594 C 1374.261719 525.191406 1395.871094 537.660156 1401.488281 558.648438 C 1407.109375 579.640625 1394.640625 601.238281 1373.648438 606.871094 L 1157.789062 664.710938 "/>
<path fill-rule="evenodd" fill="rgb(86.131287%, 89.256287%, 89.646912%)" fill-opacity="1" d="M 1304.53125 811.449219 C 1283.539062 817.070312 1261.941406 804.601562 1256.308594 783.609375 C 1250.691406 762.621094 1263.160156 741.011719 1284.148438 735.390625 L 1500.011719 677.550781 C 1521 671.929688 1542.609375 684.398438 1548.230469 705.390625 C 1553.851562 726.378906 1541.378906 747.980469 1520.390625 753.609375 L 1304.53125 811.449219 "/>
</svg>
