<?xml version="1.0" encoding="UTF-8"?>
<svg xmlns="http://www.w3.org/2000/svg" xmlns:xlink="http://www.w3.org/1999/xlink" width="3001" height="3001" viewBox="0 0 3001 3001">
<path fill-rule="evenodd" fill="rgb(100%, 100%, 100%)" fill-opacity="1" d="M 1 0 L 3001 0 L 3001 3000 L 1 3000 L 1 0 "/>
<path fill-rule="nonzero" fill="rgb(0%, 0%, 0%)" fill-opacity="1" d="M 773.800781 1005.5 L 2228.199219 1005.5 C 2240.789062 1005.5 2251 1015.71875 2251 1028.300781 L 2251 1971.699219 C 2251 1984.289062 2240.789062 1994.5 2228.199219 1994.5 L 773.800781 1994.5 C 761.210938 1994.5 751 1984.289062 751 1971.699219 L 751 1028.300781 C 751 1015.71875 761.210938 1005.5 773.800781 1005.5 Z M 2205.398438 1051.109375 L 2051.191406 1051.109375 L 2051.191406 1194.179688 L 2205.398438 1194.179688 Z M 2005.589844 1051.109375 L 996.40625 1051.109375 L 996.40625 1948.898438 L 2005.589844 1948.898438 Z M 950.804688 1051.109375 L 796.601562 1051.109375 L 796.601562 1194.179688 L 950.804688 1194.179688 Z M 2205.398438 1948.898438 L 2205.398438 1805.820312 L 2051.191406 1805.820312 L 2051.191406 1948.898438 Z M 2205.398438 1760.21875 L 2205.398438 1617.140625 L 2051.191406 1617.140625 L 2051.191406 1760.21875 Z M 2205.398438 1571.539062 L 2205.398438 1428.460938 L 2051.191406 1428.460938 L 2051.191406 1571.539062 Z M 2205.398438 1382.859375 L 2205.398438 1239.78125 L 2051.191406 1239.78125 L 2051.191406 1382.859375 Z M 796.601562 1948.898438 L 950.804688 1948.898438 L 950.804688 1805.820312 L 796.601562 1805.820312 Z M 796.601562 1239.78125 L 796.601562 1382.859375 L 950.804688 1382.859375 L 950.804688 1239.78125 Z M 796.601562 1428.460938 L 796.601562 1571.539062 L 950.804688 1571.539062 L 950.804688 1428.460938 Z M 796.601562 1617.140625 L 796.601562 1760.21875 L 950.804688 1760.21875 L 950.804688 1617.140625 Z M 1679.828125 1519.671875 L 1512.398438 1616.328125 L 1344.960938 1713.011719 C 1334.101562 1719.300781 1320.179688 1715.589844 1313.878906 1704.730469 C 1311.800781 1701.140625 1310.808594 1697.210938 1310.820312 1693.328125 L 1310.761719 1693.328125 L 1310.761719 1306.660156 C 1310.761719 1294.070312 1320.96875 1283.859375 1333.558594 1283.859375 C 1338.289062 1283.859375 1342.671875 1285.300781 1346.308594 1287.761719 L 1512.398438 1383.648438 L 1513.53125 1384.359375 L 1679.738281 1480.308594 C 1690.601562 1486.550781 1694.351562 1500.429688 1688.109375 1511.300781 C 1686.050781 1514.878906 1683.160156 1517.691406 1679.808594 1519.628906 L 1679.828125 1519.671875 "/>
</svg>
